<?xml version="1.0" encoding="UTF-8"?>
<svg width="121px" height="34px" viewBox="0 0 121 34" version="1.1" xmlns="http://www.w3.org/2000/svg" xmlns:xlink="http://www.w3.org/1999/xlink">
    <!-- Generator: Sketch 48.2 (47327) - http://www.bohemiancoding.com/sketch -->
    <title>logo</title>
    <desc>Created with Sketch.</desc>
    <defs>
        <polygon id="path-1" points="0 33.9099215 120.630541 33.9099215 120.630541 -0.000129113924 0 -0.000129113924"/>
    </defs>
    <g id="Masai-home-page" stroke="none" stroke-width="1" fill="none" fill-rule="evenodd" transform="translate(-40.000000, -19.000000)">
        <g id="logo" transform="translate(40.000000, 19.000000)">
            <g id="Page-1">
                <path d="M0,11.1455013 L5.5225089,11.1455013 L5.5225089,14.8097544 C6.99087189,11.7480329 9.46125267,10.6359316 12.5241459,10.7022101 C15.6128754,10.768919 17.9575196,12.153881 19.3500961,14.9474759 C19.8422776,14.3199823 20.2888149,13.6356785 20.8481708,13.0606911 C22.2739039,11.5952481 24.0669431,10.8932987 26.0860498,10.7271722 C27.4230783,10.6174253 28.7372847,10.7331975 30.0127367,11.1609949 C32.3685765,11.9511722 33.8171317,13.6386911 34.6486299,15.9132481 C35.245879,17.5474 35.4138149,19.2534253 35.415968,20.9788177 C35.4215658,24.9981342 35.4185516,29.0174506 35.4176904,33.0367671 C35.4176904,33.1379063 35.4047722,33.2394759 35.3948683,33.3810709 L29.9502989,33.3810709 L29.9502989,32.7832734 C29.9502989,29.0536025 29.9705374,25.3235013 29.9347972,21.5942608 C29.9266157,20.7369443 29.8267153,19.8520835 29.589452,19.0317797 C29.1032989,17.3520076 27.9604733,16.2739063 26.1898256,16.0733494 C24.18579,15.8465392 22.4767189,16.4249696 21.3730783,18.2471975 C20.8335302,19.1376532 20.565694,20.1258051 20.5549288,21.1591468 C20.5153132,25.0063114 20.502395,28.8530456 20.479573,32.7002101 C20.4782811,32.9192734 20.4791423,33.1379063 20.4791423,33.3892481 L14.9428541,33.3892481 C14.9428541,33.174919 14.9428541,32.9760835 14.9424235,32.7768177 C14.9389786,28.7919316 14.9510356,24.8066152 14.9226157,20.8217291 C14.913573,19.5366152 14.5802847,18.3143367 13.6979751,17.3339316 C12.3299431,15.8134 10.5963274,15.7613241 8.81146975,16.3294253 C6.7673879,16.9801595 5.8687153,18.5734253 5.63145196,20.5970709 C5.5483452,21.3046152 5.54576157,22.0242101 5.54403915,22.7386405 C5.53542705,26.0766658 5.5401637,29.4142608 5.5401637,32.7522861 L5.5401637,33.4236785 L0,33.4236785 L0,11.1455013 Z" id="Fill-1" fill="#3C1E0F"/>
                <path d="M50.5036345,15.8393949 C46.9640616,15.8432684 44.2831149,18.5817747 44.2770865,22.1995468 C44.271058,25.8470152 47.000663,28.7000025 50.5079406,28.7120532 C54.1086594,28.7241038 56.9678765,25.8457241 56.961848,22.2146101 C56.9566808,18.6695722 54.0858374,15.8355215 50.5036345,15.8393949 M57.0544281,13.7856228 L57.0544281,11.1779519 L62.5459335,11.1779519 L62.5459335,33.3851165 L57.0837093,33.3851165 L57.0837093,30.5665595 C56.9919904,30.5975468 56.9308445,30.5984076 56.9088836,30.6281038 C55.4435349,32.6091418 53.3654352,33.5193949 51.0190687,33.8012937 C47.4205028,34.2333949 44.2865598,33.1604582 41.7640758,30.5243823 C39.947784,28.6264076 39.0258587,26.3045089 38.7614673,23.7058759 C38.4802822,20.9406861 38.8717021,18.2869646 40.3310224,15.8996481 C42.6037555,12.1824582 46.0068267,10.5164582 50.3344068,10.7204582 C52.3354281,10.8151418 54.1680829,11.4267114 55.7527093,12.6868633 C56.2134566,13.0531165 56.6531043,13.4456228 57.0544281,13.7856228" id="Fill-3" fill="#3C1E0F"/>
                <path d="M97.8704409,15.8393949 C94.3325904,15.8445595 91.652505,18.5865089 91.6490601,22.2047114 C91.6451847,25.851319 94.3790957,28.7043063 97.8850815,28.7120532 C101.487523,28.7198 104.342864,25.8409899 104.333822,22.2094456 C104.324779,18.6635468 101.454366,15.8342304 97.8704409,15.8393949 M104.432,13.7989646 L104.432,11.1753696 L109.92006,11.1753696 L109.92006,33.3872684 L104.449654,33.3872684 L104.449654,30.5037241 C104.016896,30.9590658 103.680594,31.3778253 103.280993,31.7229899 C101.467715,33.2878506 99.2978964,33.9123316 96.9592808,33.8959772 C93.8752879,33.8748886 91.2111349,32.7571924 89.0938502,30.484357 C87.2650708,28.5213949 86.3440068,26.1543063 86.1153555,23.4954203 C85.8742167,20.6876228 86.3207541,18.0162557 87.866626,15.6336734 C90.1561527,12.1058506 93.4855904,10.5267873 97.6624587,10.7165848 C99.6815655,10.8086861 101.532306,11.4176734 103.130281,12.6911671 C103.589306,13.0569899 104.025078,13.4512177 104.432,13.7989646" id="Fill-5" fill="#3C1E0F"/>
                <g id="Group-9" transform="translate(65.882562, 10.239035)" fill="#3C1E0F">
                    <path d="M17.3048085,7.37055443 L12.1069758,7.37055443 C11.5446057,5.0783519 9.17929253,4.1220481 7.21702562,5.37746582 C5.77880498,6.29761772 5.81196157,8.13706076 7.35438861,8.84632658 C8.31506833,9.2878962 9.38167687,9.50566835 10.4086698,9.7957443 C11.9915737,10.2424785 13.611079,10.5730101 15.0449936,11.4449595 C18.1625737,13.3403519 19.0332569,17.3205038 16.9237231,20.261719 C15.7933851,21.8373392 14.1674206,22.7088582 12.3317516,23.2003519 C9.33689395,24.0025797 6.42643488,23.8360228 3.69898292,22.2578203 C1.48911815,20.979162 0.226584342,19.0600987 0.0280754448,16.4851367 C0.02333879,16.4205797 0.0349651246,16.3547316 0.0405629893,16.2609089 L5.18801495,16.2609089 C5.36499359,17.7896177 6.27787616,18.6878203 7.74107189,19.041162 C8.9351395,19.3295165 10.1124135,19.2245038 11.2212214,18.6770608 C12.1681217,18.209238 12.5836555,17.4414405 12.4902142,16.4984785 C12.4148584,15.7440228 11.954111,15.2684532 11.307773,15.0321747 C10.3862783,14.6956177 9.43119644,14.4464278 8.48171246,14.191643 C6.95694021,13.7827823 5.42786192,13.4062 4.01547758,12.6551873 C0.562025623,10.818757 -0.00421992883,7.03184557 1.23118577,4.55328861 C2.10445267,2.80164304 3.56420356,1.67361772 5.38221779,1.06290886 C8.54199715,0.00116202532 11.6302961,0.193111392 14.5028619,1.96756709 C16.396232,3.13733924 17.2742356,4.94321266 17.3465772,7.15063038 C17.3482996,7.21432658 17.322894,7.27888354 17.3048085,7.37055443" id="Fill-7"/>
                </g>
                <mask id="mask-2" fill="white">
                    <use xlink:href="#path-1"/>
                </mask>
                <g id="Clip-11"/>
                <polygon id="Fill-10" fill="#3C1E0F" mask="url(#mask-2)" points="114.822972 33.389162 120.304573 33.389162 120.304573 11.1923266 114.822972 11.1923266"/>
                <path d="M117.253995,6.54973418 C116.308817,6.49335443 115.315411,5.933 114.755625,4.63798734 C114.249664,3.46649367 114.365497,2.30705063 115.097525,1.3025443 C115.934191,0.154721519 117.052041,-0.208949367 118.319312,0.111253165 C119.480653,0.404341772 120.251436,1.20656962 120.545109,2.53902532 C121.004995,4.62292405 119.560315,6.55575949 117.253995,6.54973418" id="Fill-12" fill="#3C1E0F" mask="url(#mask-2)"/>
                <polygon id="Fill-13" fill="#D61920" mask="url(#mask-2)" points="120.283689 11.2935949 114.822756 11.3551392 114.822756 26.1718228 120.283689 19.4703797"/>
            </g>
        </g>
    </g>
</svg>